<?xml version="1.0" encoding="utf-8"?><!-- Uploaded to: SVG Repo, www.svgrepo.com, Generator: SVG Repo Mixer Tools -->
<svg width="800px" height="800px" viewBox="0 0 20 20" xmlns="http://www.w3.org/2000/svg">
  <g id="bold-circle" transform="translate(-2 -2)">
    <circle id="secondary" fill="#2ca9bc" cx="9" cy="9" r="9" transform="translate(3 3)"/>
    <path id="primary" d="M10,12h2a2,2,0,0,0,2-2h0a2,2,0,0,0-2-2H9" fill="none" stroke="#000000" stroke-linecap="round" stroke-linejoin="round" stroke-width="2"/>
    <path id="primary-2" data-name="primary" d="M9,16h4a2,2,0,0,0,2-2h0a2,2,0,0,0-2-2H10" fill="none" stroke="#000000" stroke-linecap="round" stroke-linejoin="round" stroke-width="2"/>
    <path id="primary-3" data-name="primary" d="M10,8v8M12,3a9,9,0,1,0,9,9A9,9,0,0,0,12,3Z" fill="none" stroke="#000000" stroke-linecap="round" stroke-linejoin="round" stroke-width="2"/>
  </g>
</svg>